<svg width="17" height="18" viewBox="0 0 17 18" fill="none" xmlns="http://www.w3.org/2000/svg">
<path d="M13.145 11.6714C8.84521 11.6714 6.11426 9.01514 6.11426 4.74854C6.11426 3.77734 6.33008 2.54053 6.63721 1.87646C6.74512 1.65234 6.78662 1.46973 6.78662 1.32861C6.78662 1.03809 6.5791 0.772461 6.21387 0.772461C6.08105 0.772461 5.86523 0.805664 5.64111 0.896973C2.54492 2.14209 0.486328 5.37109 0.486328 8.82422C0.486328 13.6802 4.14697 17.1831 8.99463 17.1831C12.481 17.1831 15.5439 15.083 16.6729 12.269C16.7725 12.0283 16.8057 11.7959 16.8057 11.6631C16.8057 11.3228 16.5649 11.0986 16.2744 11.0986C16.1084 11.0986 15.9424 11.1401 15.7183 11.2397C15.1206 11.4639 14.1245 11.6714 13.145 11.6714Z" fill="#71717C"/>
</svg>
