<svg width="20" height="20" viewBox="0 0 20 20" fill="none" xmlns="http://www.w3.org/2000/svg">
<path d="M10.8955 1.42432C10.8955 0.917969 10.4722 0.486328 9.96582 0.486328C9.45947 0.486328 9.02783 0.917969 9.02783 1.42432V3.06787C9.02783 3.57422 9.45947 3.99756 9.96582 3.99756C10.4722 3.99756 10.8955 3.57422 10.8955 3.06787V1.42432ZM14.1826 4.4541C13.8257 4.81104 13.834 5.41699 14.1909 5.77393C14.5396 6.12256 15.1455 6.13086 15.5107 5.76562L16.6729 4.59521C17.0215 4.24658 17.0215 3.63232 16.6646 3.27539C16.3076 2.91846 15.7017 2.92676 15.3447 3.28369L14.1826 4.4541ZM4.4209 5.76562C4.76953 6.12256 5.37549 6.12256 5.73242 5.77393C6.08936 5.41699 6.09766 4.80273 5.74902 4.4541L4.58691 3.28369C4.23828 2.93506 3.62402 2.91846 3.27539 3.27539C2.91016 3.63232 2.91016 4.24658 3.25879 4.58691L4.4209 5.76562ZM9.95752 5.4917C7.50879 5.4917 5.4834 7.51709 5.4834 9.97412C5.4834 12.4312 7.50879 14.4565 9.95752 14.4565C12.4146 14.4565 14.4399 12.4312 14.4399 9.97412C14.4399 7.51709 12.4146 5.4917 9.95752 5.4917ZM18.5073 10.9038C19.0137 10.9038 19.4453 10.4805 19.4453 9.97412C19.4453 9.46777 19.0137 9.04443 18.5073 9.04443H16.8721C16.3657 9.04443 15.9424 9.46777 15.9424 9.97412C15.9424 10.4805 16.3657 10.9038 16.8721 10.9038H18.5073ZM1.41602 9.04443C0.909668 9.04443 0.486328 9.46777 0.486328 9.97412C0.486328 10.4805 0.909668 10.9038 1.41602 10.9038H3.05957C3.56592 10.9038 3.98926 10.4805 3.98926 9.97412C3.98926 9.46777 3.56592 9.04443 3.05957 9.04443H1.41602ZM15.4941 14.1826C15.1455 13.834 14.5396 13.834 14.1826 14.1909C13.8257 14.5479 13.834 15.1455 14.1909 15.5107L15.3613 16.6812C15.7183 17.0298 16.3159 17.0215 16.6812 16.6646C17.0298 16.3076 17.0298 15.7017 16.6729 15.3447L15.4941 14.1826ZM3.25879 15.3447C2.90186 15.6934 2.89355 16.3076 3.24219 16.6562C3.59912 17.0132 4.21338 17.0215 4.56201 16.6729L5.73242 15.5107C6.08936 15.1538 6.09766 14.5479 5.74902 14.1992C5.39209 13.834 4.77783 13.834 4.4209 14.1826L3.25879 15.3447ZM10.8955 16.8804C10.8955 16.374 10.4722 15.9507 9.96582 15.9507C9.45947 15.9507 9.02783 16.374 9.02783 16.8804V18.5239C9.02783 19.0303 9.45947 19.4619 9.96582 19.4619C10.4722 19.4619 10.8955 19.0303 10.8955 18.5239V16.8804Z" fill="#ECECED"/>
</svg>
